<svg xmlns="http://www.w3.org/2000/svg" version="1.1" xmlns:xlink="http://www.w3.org/1999/xlink" xmlns:svgjs="http://svgjs.dev/svgjs" viewBox="0 0 1422 800"><defs><linearGradient x1="50%" y1="0%" x2="50%" y2="100%" id="oooscillate-grad"><stop stop-color="hsl(28, 54%, 35%)" stop-opacity="1" offset="0%"></stop><stop stop-color="hsl(28, 46%, 16%)" stop-opacity="1" offset="100%"></stop></linearGradient></defs><g stroke-width="5.5" stroke="url(#oooscillate-grad)" fill="none" stroke-linecap="round"><path d="M 0 1340 Q 355.5 -100 711 400 Q 1066.5 900 1422 1340" opacity="0.44"></path><path d="M 0 1320 Q 355.5 -100 711 400 Q 1066.5 900 1422 1320" opacity="0.88"></path><path d="M 0 1300 Q 355.5 -100 711 400 Q 1066.5 900 1422 1300" opacity="0.32"></path><path d="M 0 1280 Q 355.5 -100 711 400 Q 1066.5 900 1422 1280" opacity="0.67"></path><path d="M 0 1260 Q 355.5 -100 711 400 Q 1066.5 900 1422 1260" opacity="0.77"></path><path d="M 0 1240 Q 355.5 -100 711 400 Q 1066.5 900 1422 1240" opacity="0.18"></path><path d="M 0 1220 Q 355.5 -100 711 400 Q 1066.5 900 1422 1220" opacity="0.76"></path><path d="M 0 1200 Q 355.5 -100 711 400 Q 1066.5 900 1422 1200" opacity="0.67"></path><path d="M 0 1180 Q 355.5 -100 711 400 Q 1066.5 900 1422 1180" opacity="0.28"></path><path d="M 0 1160 Q 355.5 -100 711 400 Q 1066.5 900 1422 1160" opacity="0.68"></path><path d="M 0 1140 Q 355.5 -100 711 400 Q 1066.5 900 1422 1140" opacity="0.83"></path><path d="M 0 1120 Q 355.5 -100 711 400 Q 1066.5 900 1422 1120" opacity="0.09"></path><path d="M 0 1100 Q 355.5 -100 711 400 Q 1066.5 900 1422 1100" opacity="0.55"></path><path d="M 0 1080 Q 355.5 -100 711 400 Q 1066.5 900 1422 1080" opacity="0.48"></path><path d="M 0 1060 Q 355.5 -100 711 400 Q 1066.5 900 1422 1060" opacity="0.83"></path><path d="M 0 1040 Q 355.5 -100 711 400 Q 1066.5 900 1422 1040" opacity="0.79"></path><path d="M 0 1020 Q 355.5 -100 711 400 Q 1066.5 900 1422 1020" opacity="0.85"></path><path d="M 0 1000 Q 355.5 -100 711 400 Q 1066.5 900 1422 1000" opacity="0.74"></path><path d="M 0 980 Q 355.5 -100 711 400 Q 1066.5 900 1422 980" opacity="0.16"></path><path d="M 0 960 Q 355.5 -100 711 400 Q 1066.5 900 1422 960" opacity="0.39"></path><path d="M 0 940 Q 355.5 -100 711 400 Q 1066.5 900 1422 940" opacity="0.41"></path><path d="M 0 920 Q 355.5 -100 711 400 Q 1066.5 900 1422 920" opacity="0.41"></path><path d="M 0 900 Q 355.5 -100 711 400 Q 1066.5 900 1422 900" opacity="0.73"></path><path d="M 0 880 Q 355.5 -100 711 400 Q 1066.5 900 1422 880" opacity="0.21"></path><path d="M 0 860 Q 355.5 -100 711 400 Q 1066.5 900 1422 860" opacity="0.33"></path><path d="M 0 840 Q 355.5 -100 711 400 Q 1066.5 900 1422 840" opacity="0.10"></path><path d="M 0 820 Q 355.5 -100 711 400 Q 1066.5 900 1422 820" opacity="0.88"></path><path d="M 0 800 Q 355.5 -100 711 400 Q 1066.5 900 1422 800" opacity="0.08"></path><path d="M 0 780 Q 355.5 -100 711 400 Q 1066.5 900 1422 780" opacity="1.00"></path><path d="M 0 760 Q 355.5 -100 711 400 Q 1066.5 900 1422 760" opacity="0.25"></path><path d="M 0 740 Q 355.5 -100 711 400 Q 1066.5 900 1422 740" opacity="0.34"></path><path d="M 0 720 Q 355.5 -100 711 400 Q 1066.5 900 1422 720" opacity="0.87"></path><path d="M 0 700 Q 355.5 -100 711 400 Q 1066.5 900 1422 700" opacity="0.71"></path><path d="M 0 680 Q 355.5 -100 711 400 Q 1066.5 900 1422 680" opacity="0.22"></path><path d="M 0 660 Q 355.5 -100 711 400 Q 1066.5 900 1422 660" opacity="0.61"></path><path d="M 0 640 Q 355.5 -100 711 400 Q 1066.5 900 1422 640" opacity="0.09"></path><path d="M 0 620 Q 355.5 -100 711 400 Q 1066.5 900 1422 620" opacity="0.96"></path><path d="M 0 600 Q 355.5 -100 711 400 Q 1066.5 900 1422 600" opacity="0.41"></path><path d="M 0 580 Q 355.5 -100 711 400 Q 1066.5 900 1422 580" opacity="0.95"></path><path d="M 0 560 Q 355.5 -100 711 400 Q 1066.5 900 1422 560" opacity="0.52"></path><path d="M 0 540 Q 355.5 -100 711 400 Q 1066.5 900 1422 540" opacity="0.87"></path><path d="M 0 520 Q 355.5 -100 711 400 Q 1066.5 900 1422 520" opacity="0.96"></path><path d="M 0 500 Q 355.5 -100 711 400 Q 1066.5 900 1422 500" opacity="0.57"></path><path d="M 0 480 Q 355.5 -100 711 400 Q 1066.5 900 1422 480" opacity="0.08"></path><path d="M 0 460 Q 355.5 -100 711 400 Q 1066.5 900 1422 460" opacity="0.38"></path><path d="M 0 440 Q 355.5 -100 711 400 Q 1066.5 900 1422 440" opacity="0.79"></path><path d="M 0 420 Q 355.5 -100 711 400 Q 1066.5 900 1422 420" opacity="0.14"></path><path d="M 0 400 Q 355.5 -100 711 400 Q 1066.5 900 1422 400" opacity="0.70"></path><path d="M 0 380 Q 355.5 -100 711 400 Q 1066.5 900 1422 380" opacity="0.20"></path><path d="M 0 360 Q 355.5 -100 711 400 Q 1066.5 900 1422 360" opacity="0.80"></path><path d="M 0 340 Q 355.5 -100 711 400 Q 1066.5 900 1422 340" opacity="0.52"></path><path d="M 0 320 Q 355.5 -100 711 400 Q 1066.5 900 1422 320" opacity="0.62"></path><path d="M 0 300 Q 355.5 -100 711 400 Q 1066.5 900 1422 300" opacity="0.83"></path><path d="M 0 280 Q 355.5 -100 711 400 Q 1066.5 900 1422 280" opacity="0.31"></path><path d="M 0 260 Q 355.5 -100 711 400 Q 1066.5 900 1422 260" opacity="0.83"></path><path d="M 0 240 Q 355.5 -100 711 400 Q 1066.5 900 1422 240" opacity="0.48"></path><path d="M 0 220 Q 355.5 -100 711 400 Q 1066.5 900 1422 220" opacity="0.15"></path><path d="M 0 200 Q 355.5 -100 711 400 Q 1066.5 900 1422 200" opacity="0.48"></path><path d="M 0 180 Q 355.5 -100 711 400 Q 1066.5 900 1422 180" opacity="0.81"></path><path d="M 0 160 Q 355.5 -100 711 400 Q 1066.5 900 1422 160" opacity="0.27"></path><path d="M 0 140 Q 355.5 -100 711 400 Q 1066.5 900 1422 140" opacity="0.70"></path><path d="M 0 120 Q 355.5 -100 711 400 Q 1066.5 900 1422 120" opacity="0.12"></path><path d="M 0 100 Q 355.5 -100 711 400 Q 1066.5 900 1422 100" opacity="0.79"></path><path d="M 0 80 Q 355.5 -100 711 400 Q 1066.5 900 1422 80" opacity="0.77"></path><path d="M 0 60 Q 355.5 -100 711 400 Q 1066.5 900 1422 60" opacity="0.10"></path><path d="M 0 40 Q 355.5 -100 711 400 Q 1066.5 900 1422 40" opacity="0.33"></path></g></svg>